<svg width="218px" height="64px" viewBox="0 0 218 65" fill="none" xmlns="http://www.w3.org/2000/svg"><path d="M206.154 49.9722L200.122 52.8929V51.1109L204.128 49.2295L200.122 47.3322V45.5502L206.154 48.4709V49.9722ZM190.991 55.7189L196.502 40.9029H198.086L192.577 55.7189H190.991ZM187.867 44.9289H189.666L185.578 55.0922C185.36 55.6422 185.074 56.0549 184.721 56.3295C184.366 56.6042 183.856 56.7422 183.192 56.7422H181.769V55.2735H183.764L184.532 53.3269L181.131 44.9289H182.995L184.336 48.4922L185.383 51.4129H185.481L186.527 48.4922L187.867 44.9289ZM170.245 53.4422V44.9289H171.765V46.0342H171.847C171.978 45.6709 172.165 45.3629 172.411 45.1109C172.656 44.8575 173.008 44.7309 173.466 44.7309C173.911 44.7309 174.258 44.8542 174.504 45.1022C174.749 45.3495 174.904 45.6882 174.969 46.1169H175.035C175.188 45.7315 175.4 45.4042 175.673 45.1355C175.945 44.8655 176.337 44.7309 176.85 44.7309C177.504 44.7309 177.958 44.9615 178.215 45.4242C178.471 45.8855 178.599 46.5622 178.599 47.4529V53.4422H177.078V47.6842C177.078 47.0902 177.008 46.6809 176.866 46.4549C176.724 46.2295 176.496 46.1169 176.18 46.1169C175.896 46.1169 175.659 46.2129 175.468 46.4055C175.278 46.5975 175.182 46.8869 175.182 47.2715V53.4422H173.661V47.6842C173.661 47.0902 173.594 46.6809 173.458 46.4549C173.321 46.2295 173.095 46.1169 172.779 46.1169C172.485 46.1169 172.242 46.2129 172.051 46.4055C171.86 46.5975 171.765 46.8869 171.765 47.2715V53.4422H170.245ZM163.315 46.1002C162.998 46.1002 162.707 46.1549 162.44 46.2655C162.173 46.3755 161.944 46.5322 161.754 46.7355C161.563 46.9395 161.412 47.1789 161.303 47.4529C161.195 47.7282 161.14 48.0302 161.14 48.3602V48.4762H165.374V48.3115C165.374 47.6395 165.186 47.1042 164.81 46.7022C164.435 46.3015 163.936 46.1002 163.315 46.1002ZM163.445 53.6402C162.803 53.6402 162.225 53.5355 161.713 53.3269C161.2 53.1175 160.769 52.8209 160.421 52.4355C160.072 52.0509 159.805 51.5855 159.62 51.0415C159.434 50.4975 159.342 49.8842 159.342 49.2015C159.342 48.5202 159.437 47.9035 159.628 47.3535C159.818 46.8049 160.086 46.3335 160.428 45.9435C160.773 45.5529 161.189 45.2529 161.68 45.0435C162.17 44.8355 162.715 44.7309 163.315 44.7309C163.903 44.7309 164.438 44.8329 164.917 45.0362C165.396 45.2395 165.805 45.5282 166.143 45.9022C166.48 46.2769 166.74 46.7215 166.92 47.2382C167.099 47.7562 167.19 48.3275 167.19 48.9549V49.6309H161.14V49.9095C161.14 50.5762 161.347 51.1202 161.762 51.5409C162.176 51.9615 162.748 52.1715 163.478 52.1715C164.023 52.1715 164.489 52.0549 164.876 51.8195C165.263 51.5842 165.577 51.2702 165.816 50.8769L166.928 51.8695C166.644 52.3662 166.211 52.7855 165.628 53.1275C165.045 53.4689 164.317 53.6402 163.445 53.6402ZM152.285 52.1715C152.547 52.1715 152.793 52.1389 153.021 52.0729C153.25 52.0069 153.452 51.9082 153.626 51.7755C153.801 51.6442 153.939 51.4815 154.043 51.2895C154.146 51.0969 154.198 50.8682 154.198 50.6042V47.7662C154.198 47.5022 154.146 47.2742 154.043 47.0822C153.939 46.8895 153.801 46.7269 153.626 46.5955C153.452 46.4629 153.25 46.3642 153.021 46.2982C152.793 46.2322 152.547 46.1989 152.285 46.1989C151.61 46.1989 151.089 46.4082 150.724 46.8262C150.359 47.2442 150.177 47.7995 150.177 48.4922V49.8782C150.177 50.5709 150.359 51.1269 150.724 51.5449C151.089 51.9629 151.61 52.1715 152.285 52.1715ZM154.198 51.9902H154.1C153.849 52.5075 153.517 52.9115 153.102 53.2029C152.689 53.4942 152.171 53.6402 151.55 53.6402C150.558 53.6402 149.768 53.2662 149.179 52.5182C148.59 51.7702 148.296 50.6595 148.296 49.1855C148.296 47.7115 148.59 46.6009 149.179 45.8529C149.768 45.1049 150.558 44.7309 151.55 44.7309C152.171 44.7309 152.689 44.8762 153.102 45.1675C153.517 45.4595 153.849 45.8635 154.1 46.3809H154.198V41.2329H155.981V53.4422H154.198V51.9902ZM140.894 52.3202C141.472 52.3202 141.946 52.1895 142.316 51.9269C142.687 51.6642 142.872 51.3255 142.872 50.9102V49.6809H141.286C140 49.6809 139.357 50.0689 139.357 50.8449V51.1729C139.357 51.5555 139.493 51.8422 139.766 52.0329C140.038 52.2249 140.414 52.3202 140.894 52.3202ZM144.621 53.4422C144.109 53.4422 143.725 53.3095 143.469 53.0462C143.213 52.7822 143.057 52.4355 143.003 52.0069H142.921C142.757 52.5242 142.461 52.9255 142.031 53.2115C141.599 53.4969 141.052 53.6402 140.387 53.6402C139.526 53.6402 138.84 53.4122 138.327 52.9555C137.815 52.4995 137.559 51.8695 137.559 51.0669C137.559 50.2415 137.861 49.6115 138.466 49.1769C139.071 48.7429 140 48.5262 141.254 48.5262H142.872V47.8655C142.872 46.7102 142.267 46.1329 141.058 46.1329C140.513 46.1329 140.071 46.2409 139.733 46.4549C139.395 46.6695 139.113 46.9529 138.883 47.3042L137.821 46.4302C138.06 45.9682 138.463 45.5695 139.03 45.2342C139.596 44.8989 140.328 44.7309 141.221 44.7309C142.289 44.7309 143.129 44.9889 143.739 45.5062C144.349 46.0235 144.654 46.7709 144.654 47.7502V52.0235H145.717V53.4422H144.621ZM131.024 53.6402C130.391 53.6402 129.828 53.5355 129.332 53.3269C128.836 53.1175 128.416 52.8209 128.073 52.4355C127.729 52.0509 127.468 51.5835 127.288 51.0329C127.108 50.4835 127.018 49.8675 127.018 49.1855C127.018 48.5035 127.108 47.8875 127.288 47.3375C127.468 46.7875 127.729 46.3202 128.073 45.9349C128.416 45.5502 128.836 45.2529 129.332 45.0435C129.828 44.8355 130.387 44.7309 131.008 44.7309C131.88 44.7309 132.58 44.9155 133.108 45.2855C133.638 45.6549 134.033 46.1362 134.294 46.7269L132.904 47.4862C132.752 47.0902 132.52 46.7762 132.209 46.5455C131.899 46.3149 131.498 46.1989 131.008 46.1989C130.332 46.1989 129.809 46.4069 129.438 46.8215C129.068 47.2362 128.882 47.7869 128.882 48.4722V49.8989C128.882 50.5735 129.068 51.1215 129.438 51.5415C129.809 51.9622 130.342 52.1715 131.04 52.1715C131.563 52.1715 131.991 52.0509 132.324 51.8089C132.656 51.5669 132.921 51.2369 133.116 50.8189L134.424 51.6275C134.152 52.2189 133.738 52.7015 133.182 53.0775C132.626 53.4529 131.907 53.6402 131.024 53.6402ZM106.463 48.4709L112.495 45.5502V47.3322L108.49 49.2135L112.495 51.1109V52.8929L106.463 49.9722V48.4709ZM119.509 52.3202C120.086 52.3202 120.56 52.1895 120.93 51.9269C121.301 51.6642 121.486 51.3255 121.486 50.9102V49.6809H119.9C118.614 49.6809 117.971 50.0689 117.971 50.8449V51.1729C117.971 51.5555 118.107 51.8422 118.38 52.0329C118.652 52.2249 119.028 52.3202 119.509 52.3202ZM123.235 53.4422C122.723 53.4422 122.339 53.3095 122.083 53.0462C121.827 52.7822 121.671 52.4355 121.617 52.0069H121.535C121.371 52.5242 121.075 52.9255 120.645 53.2115C120.213 53.4969 119.666 53.6402 119.001 53.6402C118.14 53.6402 117.454 53.4122 116.941 52.9555C116.429 52.4995 116.173 51.8695 116.173 51.0669C116.173 50.2415 116.475 49.6115 117.08 49.1769C117.685 48.7429 118.614 48.5262 119.868 48.5262H121.486V47.8655C121.486 46.7102 120.881 46.1329 119.672 46.1329C119.127 46.1329 118.685 46.2409 118.347 46.4549C118.009 46.6695 117.727 46.9529 117.497 47.3042L116.435 46.4302C116.675 45.9682 117.077 45.5695 117.644 45.2342C118.21 44.8989 118.941 44.7309 119.835 44.7309C120.903 44.7309 121.743 44.9889 122.353 45.5062C122.963 46.0235 123.268 46.7709 123.268 47.7502V52.0235H124.331V53.4422H123.235Z" fill="#10CA52"/><path d="M192.668 23.8676C192.944 21.3329 194.593 19.9862 197.168 19.9189C199.748 19.9862 201.322 21.2509 201.5 23.8676H192.668ZM206.292 25.7449C206.292 25.0942 206.249 24.4669 206.158 23.8676C205.462 18.9902 201.99 15.9302 197.07 15.9302C191.549 15.9302 187.853 19.7876 187.853 25.7449C187.853 31.7016 191.549 35.5596 197.07 35.5596C200.992 35.5596 204.199 33.7169 205.607 30.4589L201.428 28.9269C200.762 30.5862 199.346 31.3602 197.168 31.3602C194.518 31.2929 192.966 29.7949 192.709 27.1696H206.218C206.268 26.7096 206.292 26.2329 206.292 25.7449ZM185.004 23.6876V34.9869H180.258V20.7196H172.5V34.9849H167.753V16.5002H177.882C181.815 16.5002 185.004 19.7182 185.004 23.6876ZM155.186 30.9642C151.849 30.8876 150.286 29.1822 150.286 25.6496C150.286 22.1396 151.831 20.3936 155.186 20.3156C158.54 20.3936 160.085 22.1396 160.085 25.6496C160.085 29.1822 158.522 30.8876 155.186 30.9642ZM155.184 15.9302C149.359 15.9302 145.462 19.7876 145.462 25.7449C145.462 31.7016 149.359 35.5596 155.184 35.5596C161.008 35.5596 164.905 31.7016 164.905 25.7449C164.905 19.7876 161.008 15.9302 155.184 15.9302ZM139.405 28.8802L143.88 30.5229C142.366 33.6822 139.24 35.5596 135.178 35.5596C129.353 35.5596 125.457 31.7016 125.457 25.7449C125.457 19.7876 129.353 15.9302 135.178 15.9302C139.24 15.9302 142.366 17.8076 143.88 20.9662L139.488 22.5776C138.756 21.1136 137.349 20.3676 135.181 20.3156C131.827 20.3956 130.282 22.1416 130.282 25.6496C130.282 29.1816 131.843 30.8882 135.181 30.9636C137.258 30.9162 138.647 30.2376 139.405 28.8802ZM109.459 23.8676C109.735 21.3329 111.384 19.9862 113.959 19.9189C116.54 19.9862 118.113 21.2509 118.291 23.8676H109.459ZM123.083 25.7449C123.083 25.0942 123.04 24.4669 122.95 23.8676C122.253 18.9902 118.781 15.9302 113.862 15.9302C108.34 15.9302 104.643 19.7876 104.643 25.7449C104.643 31.7016 108.34 35.5596 113.862 35.5596C117.782 35.5596 120.991 33.7169 122.399 30.4589L118.218 28.9269C117.554 30.5862 116.137 31.3602 113.959 31.3602C111.31 31.2929 109.758 29.7949 109.5 27.1696H123.009C123.06 26.7096 123.083 26.2329 123.083 25.7449ZM101.796 23.6929V34.9922H97.0491V20.7249H89.2916V34.9896H84.5445V16.5056H94.6736C98.6068 16.5056 101.796 19.7229 101.796 23.6929ZM75.5252 11.3749C75.5252 9.78755 76.8002 8.50089 78.3731 8.50089C79.946 8.50089 81.221 9.78755 81.221 11.3749C81.221 12.9622 79.946 14.2489 78.3731 14.2489C76.8002 14.2489 75.5252 12.9622 75.5252 11.3749ZM76.0002 16.5056H80.7473V34.9922H76.0002V16.5056ZM68.4052 26.9422C68.4052 29.0569 66.7068 30.7709 64.6114 30.7709H58.9229V20.7249H64.6114C66.7068 20.7249 68.4052 22.4389 68.4052 24.5529V26.9422ZM73.1226 24.7876C72.9132 20.2269 69.2211 16.5829 64.6655 16.5062L54.1758 16.5029V41.0742H58.9229V34.9896H64.6655C69.2244 34.9122 72.9185 31.2636 73.1233 26.6989C73.1292 26.5656 73.1517 26.1829 73.1517 25.7462C73.1517 25.3422 73.1292 24.9229 73.1226 24.7876Z" fill="white"/><path d="M43.8283 22.3529L39.3534 13.8889C38.5283 12.3256 36.9151 11.3489 35.1598 11.3489H30.4061V13.7469H30.4081C31.2847 13.7469 32.0907 14.2342 32.5035 15.0162L36.9772 23.4816C37.3511 24.1869 37.5374 24.9622 37.5374 25.7389C37.5374 26.5156 37.3511 27.2902 36.9772 27.9962L32.5035 36.4616C32.0907 37.2436 31.2847 37.7309 30.4081 37.7309H30.4061V40.1289H35.1598C36.9151 40.1289 38.5283 39.1522 39.3534 37.5889L43.8283 29.1249C44.3865 28.0656 44.6666 26.9029 44.6666 25.7389C44.6666 24.5749 44.3865 23.4122 43.8283 22.3529ZM20.9013 11.3489H25.655V13.7469H25.6531C24.7764 13.7469 23.9698 14.2342 23.5569 15.0162L19.084 23.4816C18.7101 24.1869 18.5238 24.9622 18.5238 25.7389C18.5238 26.5156 18.7101 27.2902 19.084 27.9962L23.5569 36.4616C23.9698 37.2436 24.7764 37.7309 25.6531 37.7309H25.655V40.1289H20.9013C19.1461 40.1289 17.5329 39.1522 16.7078 37.5889L12.2328 29.1249C11.6746 28.0656 11.3945 26.9029 11.3945 25.7389C11.3945 24.5749 11.6746 23.4122 12.2328 22.3529L16.7078 13.8889C17.5329 12.3256 19.1461 11.3489 20.9013 11.3489Z" fill="white"/></svg>